<mxfile host="app.diagrams.net" modified="2024-05-09T06:20:16.602Z" agent="Mozilla/5.0 (Windows NT 10.0; Win64; x64) AppleWebKit/537.36 (KHTML, like Gecko) Chrome/124.0.0.0 Safari/537.36" etag="6eucFRg_LnTl5Ef2MieI" version="24.3.1" type="device">
  <diagram name="Страница — 1" id="7zmIP3OERxS1YsX698Mz">
    <mxGraphModel dx="1434" dy="746" grid="1" gridSize="10" guides="1" tooltips="1" connect="1" arrows="1" fold="1" page="1" pageScale="1" pageWidth="827" pageHeight="1169" math="0" shadow="0">
      <root>
        <mxCell id="0" />
        <mxCell id="1" parent="0" />
        <mxCell id="jfc0YyW0h8D8IFJiqFvy-6" style="edgeStyle=orthogonalEdgeStyle;rounded=0;orthogonalLoop=1;jettySize=auto;html=1;exitX=0.5;exitY=1;exitDx=0;exitDy=0;entryX=0.5;entryY=0;entryDx=0;entryDy=0;" edge="1" parent="1" source="jfc0YyW0h8D8IFJiqFvy-1" target="jfc0YyW0h8D8IFJiqFvy-4">
          <mxGeometry relative="1" as="geometry" />
        </mxCell>
        <mxCell id="jfc0YyW0h8D8IFJiqFvy-7" style="edgeStyle=orthogonalEdgeStyle;rounded=0;orthogonalLoop=1;jettySize=auto;html=1;exitX=0.5;exitY=1;exitDx=0;exitDy=0;entryX=0.5;entryY=0;entryDx=0;entryDy=0;" edge="1" parent="1" source="jfc0YyW0h8D8IFJiqFvy-1" target="jfc0YyW0h8D8IFJiqFvy-3">
          <mxGeometry relative="1" as="geometry" />
        </mxCell>
        <mxCell id="jfc0YyW0h8D8IFJiqFvy-8" style="edgeStyle=orthogonalEdgeStyle;rounded=0;orthogonalLoop=1;jettySize=auto;html=1;exitX=0.5;exitY=1;exitDx=0;exitDy=0;entryX=0.5;entryY=0;entryDx=0;entryDy=0;" edge="1" parent="1" source="jfc0YyW0h8D8IFJiqFvy-1" target="jfc0YyW0h8D8IFJiqFvy-5">
          <mxGeometry relative="1" as="geometry" />
        </mxCell>
        <mxCell id="jfc0YyW0h8D8IFJiqFvy-1" value="Функции ИС" style="rounded=0;whiteSpace=wrap;html=1;fontSize=15;" vertex="1" parent="1">
          <mxGeometry x="365" y="80" width="120" height="60" as="geometry" />
        </mxCell>
        <mxCell id="jfc0YyW0h8D8IFJiqFvy-23" style="edgeStyle=orthogonalEdgeStyle;rounded=0;orthogonalLoop=1;jettySize=auto;html=1;exitX=0.25;exitY=1;exitDx=0;exitDy=0;entryX=0;entryY=0.5;entryDx=0;entryDy=0;" edge="1" parent="1" source="jfc0YyW0h8D8IFJiqFvy-3" target="jfc0YyW0h8D8IFJiqFvy-9">
          <mxGeometry relative="1" as="geometry" />
        </mxCell>
        <mxCell id="jfc0YyW0h8D8IFJiqFvy-24" style="edgeStyle=orthogonalEdgeStyle;rounded=0;orthogonalLoop=1;jettySize=auto;html=1;exitX=0.25;exitY=1;exitDx=0;exitDy=0;entryX=0;entryY=0.5;entryDx=0;entryDy=0;" edge="1" parent="1" source="jfc0YyW0h8D8IFJiqFvy-3" target="jfc0YyW0h8D8IFJiqFvy-10">
          <mxGeometry relative="1" as="geometry" />
        </mxCell>
        <mxCell id="jfc0YyW0h8D8IFJiqFvy-25" style="edgeStyle=orthogonalEdgeStyle;rounded=0;orthogonalLoop=1;jettySize=auto;html=1;exitX=0.25;exitY=1;exitDx=0;exitDy=0;entryX=0;entryY=0.5;entryDx=0;entryDy=0;" edge="1" parent="1" source="jfc0YyW0h8D8IFJiqFvy-3" target="jfc0YyW0h8D8IFJiqFvy-11">
          <mxGeometry relative="1" as="geometry" />
        </mxCell>
        <mxCell id="jfc0YyW0h8D8IFJiqFvy-3" value="Работа с профилем клиента" style="rounded=0;whiteSpace=wrap;html=1;fontSize=15;" vertex="1" parent="1">
          <mxGeometry x="70" y="220" width="170" height="80" as="geometry" />
        </mxCell>
        <mxCell id="jfc0YyW0h8D8IFJiqFvy-20" style="edgeStyle=orthogonalEdgeStyle;rounded=0;orthogonalLoop=1;jettySize=auto;html=1;exitX=0.25;exitY=1;exitDx=0;exitDy=0;entryX=0;entryY=0.5;entryDx=0;entryDy=0;" edge="1" parent="1" source="jfc0YyW0h8D8IFJiqFvy-4" target="jfc0YyW0h8D8IFJiqFvy-12">
          <mxGeometry relative="1" as="geometry" />
        </mxCell>
        <mxCell id="jfc0YyW0h8D8IFJiqFvy-21" style="edgeStyle=orthogonalEdgeStyle;rounded=0;orthogonalLoop=1;jettySize=auto;html=1;exitX=0.25;exitY=1;exitDx=0;exitDy=0;entryX=0;entryY=0.5;entryDx=0;entryDy=0;" edge="1" parent="1" source="jfc0YyW0h8D8IFJiqFvy-4" target="jfc0YyW0h8D8IFJiqFvy-13">
          <mxGeometry relative="1" as="geometry" />
        </mxCell>
        <mxCell id="jfc0YyW0h8D8IFJiqFvy-22" style="edgeStyle=orthogonalEdgeStyle;rounded=0;orthogonalLoop=1;jettySize=auto;html=1;exitX=0.25;exitY=1;exitDx=0;exitDy=0;entryX=0;entryY=0.5;entryDx=0;entryDy=0;" edge="1" parent="1" source="jfc0YyW0h8D8IFJiqFvy-4" target="jfc0YyW0h8D8IFJiqFvy-14">
          <mxGeometry relative="1" as="geometry" />
        </mxCell>
        <mxCell id="jfc0YyW0h8D8IFJiqFvy-4" value="Работа с данными сотрудников" style="rounded=0;whiteSpace=wrap;html=1;fontSize=15;" vertex="1" parent="1">
          <mxGeometry x="340" y="220" width="170" height="80" as="geometry" />
        </mxCell>
        <mxCell id="jfc0YyW0h8D8IFJiqFvy-18" style="edgeStyle=orthogonalEdgeStyle;rounded=0;orthogonalLoop=1;jettySize=auto;html=1;exitX=0.25;exitY=1;exitDx=0;exitDy=0;entryX=0;entryY=0.5;entryDx=0;entryDy=0;" edge="1" parent="1" source="jfc0YyW0h8D8IFJiqFvy-5" target="jfc0YyW0h8D8IFJiqFvy-15">
          <mxGeometry relative="1" as="geometry" />
        </mxCell>
        <mxCell id="jfc0YyW0h8D8IFJiqFvy-19" style="edgeStyle=orthogonalEdgeStyle;rounded=0;orthogonalLoop=1;jettySize=auto;html=1;exitX=0.25;exitY=1;exitDx=0;exitDy=0;entryX=0;entryY=0.5;entryDx=0;entryDy=0;" edge="1" parent="1" source="jfc0YyW0h8D8IFJiqFvy-5" target="jfc0YyW0h8D8IFJiqFvy-16">
          <mxGeometry relative="1" as="geometry" />
        </mxCell>
        <mxCell id="jfc0YyW0h8D8IFJiqFvy-5" value="Работа с документами" style="rounded=0;whiteSpace=wrap;html=1;fontSize=15;" vertex="1" parent="1">
          <mxGeometry x="610" y="220" width="170" height="80" as="geometry" />
        </mxCell>
        <mxCell id="jfc0YyW0h8D8IFJiqFvy-9" value="Редактирование данных клиента" style="rounded=0;whiteSpace=wrap;html=1;fontSize=14;" vertex="1" parent="1">
          <mxGeometry x="150" y="330" width="130" height="60" as="geometry" />
        </mxCell>
        <mxCell id="jfc0YyW0h8D8IFJiqFvy-10" value="Просмотр/редактирование справок, квитанций об оплате" style="rounded=0;whiteSpace=wrap;html=1;fontSize=14;" vertex="1" parent="1">
          <mxGeometry x="150" y="410" width="130" height="80" as="geometry" />
        </mxCell>
        <mxCell id="jfc0YyW0h8D8IFJiqFvy-11" value="Искать данные клиента" style="rounded=0;whiteSpace=wrap;html=1;fontSize=14;" vertex="1" parent="1">
          <mxGeometry x="150" y="525" width="130" height="60" as="geometry" />
        </mxCell>
        <mxCell id="jfc0YyW0h8D8IFJiqFvy-12" value="Редактирование данных сотрудника" style="rounded=0;whiteSpace=wrap;html=1;fontSize=14;" vertex="1" parent="1">
          <mxGeometry x="430" y="322.5" width="130" height="60" as="geometry" />
        </mxCell>
        <mxCell id="jfc0YyW0h8D8IFJiqFvy-13" value="Назначение группы тренеру" style="rounded=0;whiteSpace=wrap;html=1;fontSize=14;" vertex="1" parent="1">
          <mxGeometry x="430" y="402.5" width="130" height="80" as="geometry" />
        </mxCell>
        <mxCell id="jfc0YyW0h8D8IFJiqFvy-14" value="Просмотр расписания" style="rounded=0;whiteSpace=wrap;html=1;fontSize=14;" vertex="1" parent="1">
          <mxGeometry x="430" y="517.5" width="130" height="60" as="geometry" />
        </mxCell>
        <mxCell id="jfc0YyW0h8D8IFJiqFvy-15" value="Составление расписания" style="rounded=0;whiteSpace=wrap;html=1;fontSize=14;" vertex="1" parent="1">
          <mxGeometry x="680" y="315" width="130" height="60" as="geometry" />
        </mxCell>
        <mxCell id="jfc0YyW0h8D8IFJiqFvy-16" value="Оформление договоров по шаблону" style="rounded=0;whiteSpace=wrap;html=1;fontSize=14;" vertex="1" parent="1">
          <mxGeometry x="680" y="395" width="130" height="80" as="geometry" />
        </mxCell>
      </root>
    </mxGraphModel>
  </diagram>
</mxfile>
